<svg width="299" height="219" viewBox="0 0 299 219" fill="none" xmlns="http://www.w3.org/2000/svg">
<g filter="url(#filter0_d_20_409)">
<path d="M101.793 17.9646L184.803 0L191.793 203H107.036L101.793 17.9646Z" fill="#AF7EE7" fill-opacity="0.7" shape-rendering="crispEdges"/>
</g>
<path d="M0 53.7403L93.3809 53.8998L122.383 205.949L35.4532 217.063L0 53.7403Z" fill="#AF7EE7" fill-opacity="0.7"/>
<path d="M199.199 33.6397L286.834 65.8905L261.8 218.644L176.347 199.196L199.199 33.6397Z" fill="#AF7EE7" fill-opacity="0.7"/>
<path d="M134.25 50.96H150.17V104H138.49V62.16H134.25V50.96Z" fill="white"/>
<path d="M37.013 115.823C39.7063 112.319 42.2908 108.954 44.7664 105.728C47.2359 102.453 49.4229 99.3387 51.3274 96.3848C53.2753 93.3752 54.7392 90.5257 55.719 87.8364C56.7484 85.141 57.117 82.6022 56.8247 80.22C56.6968 79.1779 56.3826 78.2593 55.8821 77.4643C55.4312 76.6633 54.8218 76.0076 54.054 75.4973C53.3357 74.9809 52.4869 74.6317 51.5074 74.4496C50.5715 74.2118 49.5328 74.163 48.3914 74.303C47.2499 74.4431 46.2539 74.7416 45.4032 75.1986C44.5464 75.606 43.8538 76.1191 43.3252 76.7381C42.7966 77.3571 42.3983 78.0105 42.13 78.6982C41.9114 79.3799 41.8447 80.0682 41.93 80.763C42.1248 82.3511 42.5465 83.735 43.195 84.9148C43.887 86.0389 44.7376 87.0176 45.7466 87.8509L39.861 94.6936C38.3366 94.1754 36.9528 93.1614 35.7097 91.6515C34.5162 90.1356 33.5369 88.5178 32.7718 86.7982C32.0502 85.0228 31.6163 83.5396 31.4702 82.3486C31.1353 79.619 31.5601 76.9222 32.7444 74.2582C33.9785 71.588 35.9372 69.2823 38.6208 67.3411C41.354 65.3937 44.805 64.1643 48.9737 63.6528C52.398 63.2327 55.4701 63.6366 58.1899 64.8645C60.9096 66.0924 63.1196 67.8866 64.8197 70.2472C66.5634 72.552 67.6087 75.1188 67.9558 77.9476C68.2298 80.1808 68.1473 82.3823 67.7083 84.5519C67.2692 86.7215 66.5542 88.8998 65.5631 91.0868C64.6156 93.218 63.4944 95.3706 62.1995 97.5444C60.8985 99.6687 59.554 101.849 58.1659 104.084L53.0792 103.273L71.3919 101.026L72.6706 111.448L37.013 115.823Z" fill="white"/>
<path d="M260.338 63.1043L245.206 82.1872L239.998 77.8999C240.527 77.7981 241.071 77.75 241.63 77.7559C242.238 77.7711 242.787 77.826 243.278 77.9206C245.006 78.2024 246.687 78.7297 248.32 79.5026C249.953 80.2754 251.349 81.3588 252.506 82.7528C253.712 84.1562 254.544 85.9203 255 88.0449C255.506 90.179 255.465 92.7681 254.879 95.8122C254.198 99.3472 252.777 102.231 250.616 104.462C248.514 106.654 246.009 108.158 243.103 108.973C240.196 109.788 237.196 109.897 234.103 109.302C231.697 108.838 229.263 107.861 226.801 106.368C224.349 104.826 222.497 103.07 221.248 101.098L228.4 93.3096C228.956 94.3843 229.911 95.5101 231.263 96.687C232.614 97.8639 234.125 98.613 235.794 98.9345C236.874 99.1425 237.982 99.0758 239.117 98.7343C240.252 98.3927 241.267 97.7481 242.163 96.8003C243.058 95.8525 243.657 94.5931 243.96 93.0219C244.376 90.8616 244.093 89.025 243.111 87.5121C242.179 86.0086 240.632 85.0489 238.472 84.6329C236.999 84.3492 235.856 84.2054 235.042 84.2014C234.286 84.1578 233.522 84.1632 232.747 84.2178L232.583 83.8806L244.306 69.4114L247.158 71.2591L231.766 68.2949L233.751 57.9843L260.338 63.1043Z" fill="white"/>
<defs>
<filter id="filter0_d_20_409" x="101.793" y="0" width="98" height="211" filterUnits="userSpaceOnUse" color-interpolation-filters="sRGB">
<feFlood flood-opacity="0" result="BackgroundImageFix"/>
<feColorMatrix in="SourceAlpha" type="matrix" values="0 0 0 0 0 0 0 0 0 0 0 0 0 0 0 0 0 0 127 0" result="hardAlpha"/>
<feOffset dx="4" dy="4"/>
<feGaussianBlur stdDeviation="2"/>
<feComposite in2="hardAlpha" operator="out"/>
<feColorMatrix type="matrix" values="0 0 0 0 0 0 0 0 0 0 0 0 0 0 0 0 0 0 0.25 0"/>
<feBlend mode="normal" in2="BackgroundImageFix" result="effect1_dropShadow_20_409"/>
<feBlend mode="normal" in="SourceGraphic" in2="effect1_dropShadow_20_409" result="shape"/>
</filter>
</defs>
</svg>
